<svg xmlns="http://www.w3.org/2000/svg" xmlns:xlink="http://www.w3.org/1999/xlink" contentStyleType="text/css" data-diagram-type="DESCRIPTION" height="201px" preserveAspectRatio="none" style="width:782px;height:201px;background:#1B1B1B;" version="1.1" viewBox="0 0 782 201" width="782px" zoomAndPan="magnify"><defs/><g><rect fill="#1B1B1B" height="201" style="stroke:none;stroke-width:1;" width="782" x="0" y="0"/><!--entity Usuario--><g class="entity" data-entity="Usuario" data-source-line="1" data-uid="ent0002" id="entity_Usuario"><ellipse cx="70.6821" cy="14" fill="#313139" rx="8" ry="8" style="stroke:#E7E7E7;stroke-width:0.5;"/><path d="M70.6821,22 L70.6821,49 M57.6821,30 L83.6821,30 M70.6821,49 L57.6821,64 M70.6821,49 L83.6821,64" fill="none" style="stroke:#E7E7E7;stroke-width:0.5;"/><text fill="#FFFFFF" font-family="sans-serif" font-size="14" lengthAdjust="spacing" textLength="53.2041" x="44.08" y="78.4951">Usuario</text></g><!--entity Alta--><g class="entity" data-entity="Alta" data-source-line="2" data-uid="ent0003" id="entity_Alta"><ellipse cx="70.6836" cy="177.3167" fill="#313139" rx="64.6836" ry="15.3367" style="stroke:#E7E7E7;stroke-width:0.5;"/><text fill="#FFFFFF" font-family="sans-serif" font-size="14" lengthAdjust="spacing" textLength="92.627" x="24.3701" y="181.9652">Alta paciente</text></g><!--entity Consultar--><g class="entity" data-entity="Consultar" data-source-line="3" data-uid="ent0004" id="entity_Consultar"><ellipse cx="695.6818" cy="177.3184" fill="#313139" rx="80.6418" ry="18.5284" style="stroke:#E7E7E7;stroke-width:0.5;"/><text fill="#FFFFFF" font-family="sans-serif" font-size="14" lengthAdjust="spacing" textLength="132.1865" x="629.5885" y="181.9668">Consultar paciente</text></g><!--entity Modificar--><g class="entity" data-entity="Modificar" data-source-line="4" data-uid="ent0005" id="entity_Modificar"><ellipse cx="500.6837" cy="177.3187" fill="#313139" rx="79.4437" ry="18.2887" style="stroke:#E7E7E7;stroke-width:0.5;"/><text fill="#FFFFFF" font-family="sans-serif" font-size="14" lengthAdjust="spacing" textLength="129.3633" x="436.0021" y="181.9672">Modificar paciente</text></g><!--entity Eliminar--><g class="entity" data-entity="Eliminar" data-source-line="5" data-uid="ent0006" id="entity_Eliminar"><ellipse cx="309.6829" cy="177.3186" fill="#313139" rx="76.5429" ry="17.7086" style="stroke:#E7E7E7;stroke-width:0.5;"/><text fill="#FFFFFF" font-family="sans-serif" font-size="14" lengthAdjust="spacing" textLength="122.4521" x="248.4568" y="181.967">Eliminar paciente</text></g><!--link Usuario to Alta--><g class="link" data-entity-1="Usuario" data-entity-2="Alta" data-source-line="7" data-uid="lnk7" id="link_Usuario_Alta"><path d="M70.68,82.03 C70.68,108.49 70.68,136.54 70.68,155.64" fill="none" id="Usuario-to-Alta" style="stroke:#E7E7E7;stroke-width:1;"/><polygon fill="#E7E7E7" points="70.68,161.64,74.68,152.64,70.68,156.64,66.68,152.64,70.68,161.64" style="stroke:#E7E7E7;stroke-width:1;"/></g><!--link Alta to Consultar--><g class="link" data-entity-1="Alta" data-entity-2="Consultar" data-source-line="8" data-uid="lnk8" id="link_Alta_Consultar"><path d="M97.88,163.07 C125.9,149.25 171.26,129.24 213.18,121.3 C305.48,103.81 357.7,122.16 597.68,158.79 C609.49,160.6 616.1593,161.6829 628.2093,163.9029" fill="none" id="Alta-to-Consultar" style="stroke:#E7E7E7;stroke-width:1;stroke-dasharray:7.0,7.0;"/><polygon fill="#E7E7E7" points="634.11,164.99,625.9837,159.4256,629.1928,164.0841,624.5342,167.2931,634.11,164.99" style="stroke:#E7E7E7;stroke-width:1;"/><text fill="#FFFFFF" font-family="sans-serif" font-size="13" lengthAdjust="spacing" textLength="61.1851" x="214.18" y="124.8569">&#171;extend&#187;</text></g><!--link Alta to Modificar--><g class="link" data-entity-1="Alta" data-entity-2="Modificar" data-source-line="9" data-uid="lnk9" id="link_Alta_Modificar"><path d="M101.92,163.46 C158.38,140.24 281.04,98.19 383.18,121.3 C415.81,128.68 444.8048,143.2141 467.8348,156.7241" fill="none" id="Alta-to-Modificar" style="stroke:#E7E7E7;stroke-width:1;stroke-dasharray:7.0,7.0;"/><polygon fill="#E7E7E7" points="473.01,159.76,467.2711,151.7559,468.6973,157.2301,463.2232,158.6563,473.01,159.76" style="stroke:#E7E7E7;stroke-width:1;"/><text fill="#FFFFFF" font-family="sans-serif" font-size="13" lengthAdjust="spacing" textLength="61.1851" x="321.18" y="124.8569">&#171;extend&#187;</text></g><!--link Alta to Eliminar--><g class="link" data-entity-1="Alta" data-entity-2="Eliminar" data-source-line="10" data-uid="lnk10" id="link_Alta_Eliminar"><path d="M135.68,177.32 C165.67,177.32 195.5,177.32 226.82,177.32" fill="none" id="Alta-to-Eliminar" style="stroke:#E7E7E7;stroke-width:1;stroke-dasharray:7.0,7.0;"/><polygon fill="#E7E7E7" points="232.82,177.32,223.82,173.32,227.82,177.32,223.82,181.32,232.82,177.32" style="stroke:#E7E7E7;stroke-width:1;"/><text fill="#FFFFFF" font-family="sans-serif" font-size="13" lengthAdjust="spacing" textLength="61.1851" x="153.75" y="170.3869">&#171;extend&#187;</text></g><!--SRC=[ROv12eCm44NtESNWtXwWI41AbovxW24POS0caacWnszjDQFIxNiF_aUNOuA754mSJH5oA0HDFsM46HrJoDG02Yn4_Iq6AH-IZb75MWxHyyZkN5QivNtY9uTpk55ZrfFGjlRtvdloOdKLhj1rzCeKlBLLwuE_kixkxHi0]--></g></svg>